<svg xmlns="http://www.w3.org/2000/svg" width="1170" height="445" version="1">
  <path d="M1157 182A200 200 0 0 0 960 21a203 203 0 0 0-125 43 202 202 0 0 0-124-43 203 203 0 0 0-125 44 202 202 0 0 0-125-44 203 203 0 0 0-125 44 202 202 0 0 0-125-44A203 203 0 0 0 26 144a200 200 0 0 0-16 78v1a203 203 0 0 0 123 185 200 200 0 0 0 78 16 203 203 0 0 0 125-44 203 203 0 0 0 125 44 203 203 0 0 0 125-44 201 201 0 0 0 125 44 203 203 0 0 0 124-43 201 201 0 0 0 125 43 203 203 0 0 0 185-123 200 200 0 0 0 12-119zM124 93a157 157 0 0 1 87-27 158 158 0 0 1 93 30 202 202 0 0 0-44 126v1a203 203 0 0 0 44 126 156 156 0 0 1-93 30 158 158 0 0 1-144-95 156 156 0 0 1-13-61 158 158 0 0 1 70-130zm207 217a157 157 0 0 1-27-87 158 158 0 0 1 32-95 157 157 0 0 1 0 189l-5-7zm47 25a201 201 0 0 0-10-239 158 158 0 0 1 93-30 158 158 0 0 1 93 30 202 202 0 0 0-44 126v1a203 203 0 0 0 44 126 154 154 0 0 1-93 30 158 158 0 0 1-93-30l10-14zm203-25a157 157 0 0 1-27-87 158 158 0 0 1 32-95 155 155 0 0 1 20 156 157 157 0 0 1-20 33l-5-7zm47 25a201 201 0 0 0-10-239 157 157 0 0 1 93-30 158 158 0 0 1 92 30 202 202 0 0 0-44 126v1a203 203 0 0 0 45 126 156 156 0 0 1-93 30 158 158 0 0 1-93-30l10-14zm202-25a157 157 0 0 1-27-87 158 158 0 0 1 32-96 157 157 0 0 1 0 191l-5-8zm48 25a201 201 0 0 0-11-239 154 154 0 0 1 93-30 158 158 0 0 1 144 96 156 156 0 0 1-83 205 156 156 0 0 1-61 12 158 158 0 0 1-93-30l11-14z"/>
</svg>
