<svg width="50px" height="50px" viewBox="0 0 50 50" version="1.1" xmlns="http://www.w3.org/2000/svg" xmlns:xlink="http://www.w3.org/1999/xlink">
    <defs>
        <linearGradient x1="50.0287831%" y1="100.009109%" x2="50.0287831%" y2="5.5516208e-15%" id="linearGradient-1">
            <stop stop-color="#1D63F0" offset="0%"></stop>
            <stop stop-color="#1AD3FD" offset="100%"></stop>
            <stop stop-color="#2898D4" offset="100%"></stop>
            <stop stop-color="#0092D2" offset="100%"></stop>
            <stop stop-color="#AECDEC" offset="100%"></stop>
        </linearGradient>
    </defs>
    <g id="homepage" stroke="none" stroke-width="1" fill="none" fill-rule="evenodd">
        <g id="landing-page---mobile" transform="translate(-15.000000, -10.000000)" fill-rule="nonzero">
            <g id="hitta.se" transform="translate(15.000000, 10.000000)">
                <path d="M48.0916031,-1.14352972e-14 C49.123631,0.0021159102 49.9597323,0.844648748 49.9618321,1.88461538 L49.9618321,23.9923077 C50,30.6807692 47.8244275,37.5269231 42.7099237,42.6769231 C34.8126664,50.6309626 22.6154432,52.2888384 12.9090862,46.7275242 C3.20272907,41.1662101 -1.62098387,29.7560892 1.12356063,18.8497728 C3.86810513,7.94345633 13.5046141,0.228408516 24.6679389,-1.42108547e-14 L48.0916031,-1.14352972e-14 Z" id="Shape" fill="url(#linearGradient-1)"></path>
                <path d="M13.5954198,16.8884615 C12.4664152,16.844983 11.4071496,17.4379907 10.8473282,18.4269231 L10.8091603,18.4269231 L10.8091603,13.4269231 L8.13740458,13.4269231 L8.13740458,26.8076923 L10.8091603,26.8076923 L10.8091603,21.3076923 C10.8091603,20 11.4961832,19.0384615 12.5648855,19.0384615 C13.4045802,19.0384615 14.2442748,19.5 14.2442748,20.8846154 L14.2442748,26.7692308 L16.9541985,26.7692308 L16.9541985,20.2307692 C16.9541985,18.3846154 15.9236641,16.8884615 13.5954198,16.8884615 Z" id="Shape" fill="#FFFFFF"></path>
                <rect id="Rectangle-path" fill="#FFFFFF" x="18.2900763" y="17.1576923" width="2.70992366" height="9.68846154"></rect>
                <path d="M19.6259542,16.6576923 C20.5112962,16.6576923 21.2290076,15.93446 21.2290076,15.0423077 C21.2290076,14.1501554 20.5112962,13.4269231 19.6259542,13.4269231 C18.7406122,13.4269231 18.0229008,14.1501554 18.0229008,15.0423077 C18.0411284,15.9267401 18.7482732,16.6393245 19.6259542,16.6576923 Z" id="Shape" fill="#FFFFFF"></path>
                <path d="M26.110687,26.9230769 C26.5457706,26.9228721 26.9800001,26.884263 27.4083969,26.8076923 L27.4083969,24.6923077 C27.2325221,24.7271843 27.0530543,24.740102 26.8740458,24.7307692 C26.1870229,24.7307692 25.9961832,24.5384615 25.9961832,24.0769231 L25.9961832,19.2307692 L28.7442748,19.2307692 L28.7442748,24.4230769 C28.7442748,26.5 29.8129771,26.9615385 31.5687023,26.9615385 C32.0037858,26.9613337 32.4380154,26.9227246 32.8664122,26.8461538 L32.8664122,24.7307692 C32.6905374,24.7656458 32.5110696,24.7785635 32.3320611,24.7692308 C31.6450382,24.7692308 31.4541985,24.5769231 31.4541985,24.1153846 L31.4541985,19.2307692 L32.8664122,19.2307692 L32.8664122,17.1538462 L31.4122137,17.1538462 L31.4122137,13.4230769 L28.740458,13.4230769 L28.740458,17.1153846 L25.9923664,17.1153846 L25.9923664,13.4230769 L23.2824427,13.4230769 L23.2824427,17.1153846 L22.0610687,17.1153846 L22.0610687,19.1923077 L23.2824427,19.1923077 L23.2824427,24.3846154 C23.2824427,26.5 24.3549618,26.9230769 26.110687,26.9230769 Z" id="Shape" fill="#FFFFFF"></path>
                <path d="M37.7099237,21.1538462 C33.9312977,21.3846154 33.6259542,23.0769231 33.6259542,24.1153846 C33.6259542,26.3076923 35.4961832,27.0769231 36.9847328,27.0769231 C38.2616537,27.1304996 39.4851346,26.5570613 40.2671756,25.5384615 L40.3053435,25.5384615 L40.3053435,26.8076923 L42.9007634,26.8076923 C42.8172111,26.4160176 42.7787891,26.0159357 42.7862595,25.6153846 L42.7862595,20 C42.7862595,17.7692308 40.8015267,16.8846154 38.4351145,16.8846154 C35.0763359,16.8846154 34.0076336,18.7692308 33.9312977,20.2692308 L36.5267176,20.2692308 C36.5648855,19.3846154 37.2519084,18.8461538 38.3587786,18.8461538 C39.5419847,18.8461538 40.2290076,19.4230769 40.2290076,20.5769231 L40.2290076,21.0384615 L37.7099237,21.1538462 Z M40.1908397,23.5 C40.1908397,24.6538462 38.8167939,25.1538462 37.9770992,25.1538462 C37.0610687,25.1538462 36.2977099,24.8846154 36.2977099,24.0384615 C36.2977099,23.3461538 36.7175573,22.9615385 37.9389313,22.8461538 L40.1908397,22.6538462 L40.1908397,23.5 Z" id="Shape" fill="#FFFFFF"></path>
                <path d="M22.1908397,35.0461538 C21.3265773,35.0461538 20.6259542,35.7521664 20.6259542,36.6230769 C20.6259542,37.4939875 21.3265773,38.2 22.1908397,38.2 C23.0551021,38.2 23.7557252,37.4939875 23.7557252,36.6230769 C23.7609009,36.2032738 23.5976921,35.7991397 23.3030897,35.5022712 C23.0084873,35.2054026 22.6074383,35.0409383 22.1908397,35.0461538 Z" id="Shape" fill="#FFFFFF"></path>
                <path d="M27.0687023,31.1807692 C27.0687023,30.6307692 27.759542,30.3384615 28.4122137,30.3384615 C29.3931298,30.3384615 29.9389313,30.8153846 29.9732824,31.5807692 L32.5496183,31.5423077 C32.4045802,29.5307692 30.8435115,28.5076923 28.5229008,28.5076923 C25.851145,28.5076923 24.7480916,30.0461538 24.7480916,31.4692308 C24.7480916,35.2730769 30.2251908,33.8807692 30.2251908,35.4192308 C30.2251908,36.1884615 29.3549618,36.3692308 28.6984733,36.3692308 C27.9351145,36.3692308 27.1374046,35.9846154 27.1030534,35.1269231 L24.5305344,35.1269231 C24.7480916,37.8192308 27.2862595,38.2346154 28.5954198,38.2346154 C32.370229,38.2346154 32.7671756,35.8576923 32.7671756,35.1576923 C32.7671756,31.4 27.0687023,32.8269231 27.0687023,31.1807692 Z" id="Shape" fill="#FFFFFF"></path>
                <path d="M38.1335878,28.5115385 C35.3778626,28.5115385 33.4541985,30.4115385 33.4541985,33.3730769 C33.4541985,36.3346154 35.3625954,38.2 38.1335878,38.2 C40.2748092,38.2 41.9503817,37.2115385 42.5954198,35.35 L40.0763359,35.1653846 C39.7365341,35.8564112 39.0283404,36.284596 38.2633588,36.2615385 C36.8854962,36.2615385 36.2328244,35.2 36.1221374,34.1038462 L42.7977099,34.1038462 L42.7977099,33.3730769 C42.8167939,30.3846154 40.8931298,28.5115385 38.1335878,28.5115385 Z M36.1030534,32.4230769 C36.2480916,31.4 36.9007634,30.45 38.2442748,30.45 C39.4770992,30.45 40.129771,31.5115385 40.240458,32.4230769 L36.1030534,32.4230769 Z" id="Shape" fill="#FFFFFF"></path>
            </g>
        </g>
    </g>
</svg>