<svg xmlns="http://www.w3.org/2000/svg" viewBox="0 0 1000 293">
  <path fill="#1b75bc" d="M264.689 168.895c0-5.426-.711-10.758-2.031-16.004-3.282-13.057-9.715-24.32-19.388-33.709-12.297-11.938-27.036-18.608-44.075-19.959-10.009-.793-19.835.481-29.318 3.958-14.829 5.435-26.564 14.784-35.357 27.9-.49.731-1.051 1.417-1.74 2.342-12.582-19.27-29.696-31.318-52.437-34.008-22.702-2.686-42.255 4.771-58.781 20.5 0 0 .13-9.922.079-13.616-.068-4.889-4.093-9.142-9.142-9.756-4.998-.608-9.598 2.175-11.034 7-.414 1.394-.445 2.937-.448 4.412-.021 36.515-.021 150.89-.006 171.56 0 1.203-.03 2.4.2 3.6 1.058 4.5 5.1 7.3 9.6 7.536 4.981.3 9.467-3.488 10.529-7.92.309-1.288.263-2.677.263-4.021.012-36.088-.001-112.714.329-115.096 1.556-11.249 5.914-20.702 13.951-28.753 10.663-10.683 22.941-15.819 38.134-15.227 7.45.3 14.6 2 21.1 5.527 17.943 9.9 27.5 24.9 27.6 45.357.269 36.016-.153 110.042-.098 111 .269 4.8 4.6 8.8 9.3 9.091 5.167.3 10.185-3.4 10.974-8.226.183-1.111.13-74.843.13-111.001 0-3.846.378-8.437 1.205-12.188 5.573-25.272 28.43-42.172 54.849-39.543 7.058.7 13.9 3.2 20 6.9 16.517 10 24.9 24.2 25.1 43.582.283 36.2.1 110.2.2 111.303.476 6 6.8 10.3 12.6 8.9 3.843-.908 7.661-4.677 7.646-10.436.015-37 .077-74 .077-111.005zM910.234 281.103c.006-29.04.018-57.644.012-86.685-.002-6.958.386-26.813-.332-32.847-.894-7.515-2.504-15.636-5.421-22.614-8.574-20.521-24.104-32.185-45.867-35.53-6.598-1.015-13.396-1.246-20.09-.665-6.968.605-13.894 1.879-20.489 4.173-13.996 4.864-25.528 13.477-34.892 24.847-.52.63-.946 1.34-1.547 2-.314-.785-.154-75.076-.154-111.147 0-3.976.049-8.09 0-12.065-.067-5.369-4.727-9.527-10.115-9.577-5.45-.051-9.763 5.089-9.763 9.238 0 .142-.019 272.1 0 272.832.099 4.1 2.5 7.3 6.1 8.9 3.673 1.6 7.3.9 10.258-1.649 2.363-2.045 3.539-4.366 3.535-7.466-.047-33.159.005-68.78.026-101.939.002-1.479.053-1.587.425-3.003 3.513-13.363 9.083-24.859 18.256-35.317 5.936-6.767 12.789-11.855 21.1-15.413 7.674-3.285 15.665-4.625 23.944-4.783 5.11-.098 10 .4 15 1.647 11.145 2.8 19.3 9 24.4 19.4 3.788 7.7 5.6 15.7 5.7 24.235.043 37.8 0 75.5 0 113.26 0 1.268-.036 2.3.2 3.5.681 4.4 4.4 8.3 9.5 8.289 4.674-.041 8.773-2.686 9.916-7.625.3-1.199.264-2.799.264-3.996zM995.105 17.954c-2.73-5.593-7.024-9.657-12.387-12.617-4.794-2.645-10.102-3.359-15.473-3.669-2.716-.159-5.41.041-8.067.685-6.949 1.691-13.344 4.64-19.11 8.822-2.076 1.508-3.54 1.63-5.831.3-8.143-4.836-16.857-7.852-26.535-7.762-7.068.064-13.313 2.048-18.814 6.468-5.194 4.173-9.003 9.293-10.914 15.7-1.144 3.858-1.68 7.798-1.821 11.844.334 3 .4 6 1 8.896 1.874 9.1 6.6 16.7 13.4 22.9 3.116 2.8 6.5 5.3 9.9 7.875 11.989 9.5 24 18.9 36 28.345 2.589 2 4.5 1.9 6.851-.241 4.697-4.376 9.366-8.783 14.052-13.174 8.119-7.614 16.127-15.352 24.398-22.792 5.786-5.206 10.427-11.18 13.498-18.271C1000.041 40.2 1000.5 29 995.1 17.954zM728.358 241.162c-3.7-1.676-8.261-1.044-11.108 1.914-.986 1.023-2.12 2.461-3.136 3.5-13.082 12.8-28.044 19.036-46.239 19.878-7.194.332-14.561-.245-21.579-1.913-21.934-5.217-36.814-18.008-44.644-39.225-3.635-9.849-4.93-19.742-4.997-30.188-.068-8.587.926-16.861 3.402-25.085 4.693-15.59 13.13-27.991 26.893-36.993 10.638-6.955 22.243-10.051 34.813-10.576 7.053-.295 14.2.4 21 2.073 12.438 3.1 23 9 30.3 20 1.787 2.7 4.9 3.6 8 3.729 6.647.3 11.815-7.079 8.709-14.33-.606-1.417-1.545-2.723-2.488-3.961-5.916-7.771-13.326-13.76-21.966-18.259-10.434-5.433-21.576-8.163-33.272-9.051-9.361-.71-18.613-.193-27.76 1.8-18.543 4.067-34.077 13.265-46.264 27.854-14.108 16.887-20.29 36.727-21.18 58.423-.285 7 .2 13.9 1.2 20.8 1.354 9.9 4 19.3 8.3 28.325 7.596 16 19.1 28.3 34.9 36.51 12.113 6.3 25.1 9.2 38.7 9.9 6.745.3 13.476-.052 20.171-1.139 12.975-2.108 24.875-6.851 35.706-14.267 5.715-3.912 10.945-8.387 15.431-13.698 1.551-1.84 2.699-4.189 2.844-6.642.202-4.141-1.994-7.641-5.694-9.379zM569.054 267.276c-2.629-6.309-8.751-7.619-13.854-5.492-3.538 1.474-7.153 2.546-10.807 3.7-6.877 2.145-13.852 3.552-21.135 2.692-6.342-.751-10.806-4.365-13.766-10.206-2.427-4.794-2.95-10.263-2.95-15.599.006-38.235-.438-115.299.08-115.678.408-.297 34.617-.029 50.464-.053 7.104-.008 11.83-7.483 8.929-13.951-1.787-3.981-5.265-5.951-9.566-5.953-15.707-.011-48.631.026-49.907.026 0-1.275.055-32.036.034-46.463-.002-1.198-.082-2.412-.286-3.593-.774-4.498-5.37-7.791-9.875-7.689-4.886.111-8.412 2.943-9.508 7.4-.267 1.082-.337 2.234-.339 3.366-.013 14.9 0 47 0 46.978s-23.625-.045-33.72 0c-1.39.008-2.75.246-3.866.714-4.406 1.849-6.267 4.631-6.142 9.578.143 5.7 5 9.6 9.6 9.6 10.234 0 34.1.1 34.1.053s.118 78.2.1 116.432c-.002 6.9 1 14.1 3.6 20.5 3.655 9 10.2 17 19 21.1 8.295 3.9 18.1 4.2 27 3.083 5.573-.668 10.385-1.99 15.704-3.777 4.099-1.379 8.196-2.818 12.16-4.533 4.259-1.811 6.596-8.311 4.996-12.235zM434.19 280.812c-.589-4.072-1.105-7.913-1.339-12.013-.597-10.555-.716-18.332-.744-23.386-.111-20.2-.085-40.387-.053-60.59.015-8.471-.547-17.094-1.966-25.457-1.398-8.237-3.668-16.402-7.388-23.917-6.63-13.399-17.064-22.568-31.101-27.891-8.745-3.316-17.855-4.609-27.117-4.991-6.756-.28-13.489.191-20.193 1.2-11.231 1.613-21.854 5.02-31.757 10.576-4.979 2.792-9.678 5.99-13.679 10.109-2.949 3.039-3.554 7.537-1.69 11.3 3.081 6.1 11.5 7 15.5 3.116 3.231-3.156 7.011-5.563 10.986-7.663 10.63-5.619 22.083-8.026 33.985-8.581 6.978-.325 13.9.2 20.7 1.668 7.896 1.7 14.7 5 20.2 11.034 4.366 4.7 7.1 10 9.1 16.1 2.405 7.1 3.1 14.4 3.8 21.818.163 1.7.2 2.8.2 2.801-.431.305-26.351.031-38.159-.064-9.994-.083-20.342.997-30.083 3.188-11.248 2.532-21.36 6.715-30.925 13.327-8.558 5.911-15.241 13.412-19.315 23.1-2.279 5.406-3.541 11.055-4.087 16.915-.489 5.219-.328 10.4.7 15.478 3.231 15.6 12.3 27 26.2 34.4 13.063 7 27.1 8.5 41.6 6.68 8.568-1.076 16.752-3.703 24.561-7.441 10.783-5.161 29.307-22.067 30.218-22.959.218 1.3.4 10.8.8 14.663.408 4.2.7 7.3 1.6 11.474 1.152 5.3 6.3 8.4 10.3 8.1 6.358-.606 10.056-5.806 9.156-12.094zm-22.16-58.071c-5.141 11.412-12.651 21.846-22.068 30.2-9.977 8.825-21.22 14.191-34.441 16.179-11.172 1.68-21.119.699-31.092-5.039-8.148-4.684-13.524-11.342-14.935-20.695-2.083-13.788 1.383-24.899 12.756-33.493 6.44-4.869 13.74-7.947 21.472-10.05 6.72-1.826 13.58-3.426 20.552-3.777 3.329-.17 6.7.1 10 .123 11.733-.05 23.5.5 35.2.494h2.7c.124 1.017.226 25.217-.174 26.058z"/>
</svg>
