<svg xmlns="http://www.w3.org/2000/svg" height="38.667" width="60"><defs><clipPath id="a"><path d="M327.777 290c-3.289 0-6.273-2.008-7.527-5.09a8.286 8.286 0 0 1 1.762-8.976l51.281-51.817L230.004 79.293l-75.715 76.539a8.11 8.11 0 0 1-11.535 0L12.383 24.066c-3.176-3.23-3.176-8.433 0-11.66A8.144 8.144 0 0 1 18.153 10c2.085 0 4.171.809 5.769 2.406L148.52 138.355l75.714-76.539a8.112 8.112 0 0 1 11.536 0l149.046 150.657 51.266-51.832a8.165 8.165 0 0 1 5.77-2.407c1.043 0 2.101.2 3.113.625 3.047 1.27 5.035 4.286 5.035 7.61v115.297c0 4.547-3.648 8.234-8.148 8.234z" clip-rule="evenodd"/></clipPath><clipPath id="b"><path d="M0 0h450v290H0z"/></clipPath><clipPath id="c"><path d="M373.293 230L230.004 85.176l-75.715 76.539a8.11 8.11 0 0 1-11.535 0L12.383 29.949c-3.176-3.23-3.176-8.433 0-11.664a8.14 8.14 0 0 1 5.77-2.402 8.14 8.14 0 0 1 5.769 2.402L148.52 144.238l75.714-76.539a8.112 8.112 0 0 1 11.536 0l149.046 150.656z" clip-rule="evenodd"/></clipPath><clipPath id="d"><path d="M0 0h450v290H0z"/></clipPath></defs><g clip-path="url(#a)" transform="matrix(.13333 0 0 -.13333 0 38.667)"><g clip-path="url(#b)"><path d="M0 0h500v340H0z" fill="#599c27"/></g></g><g clip-path="url(#c)" transform="matrix(.13333 0 0 -.13333 0 38.667)"><g clip-path="url(#d)"><path d="M0 0h434.816v280H0z" fill="#599c27"/></g></g><path d="M49.772 8L30.667 27.31 20.572 17.105a1.081 1.081 0 0 0-1.538 0L1.65 34.673a1.11 1.11 0 0 0 0 1.556 1.085 1.085 0 0 0 1.539 0l16.613-16.794L29.898 29.64a1.082 1.082 0 0 0 1.538 0L51.309 9.553z" fill="none" stroke="#599c27" stroke-width="1.9999500000000001" stroke-miterlimit="10"/></svg>