<?xml version="1.0" encoding="UTF-8"?>
<svg width="20px" height="11px" viewBox="0 0 20 11" version="1.1" xmlns="http://www.w3.org/2000/svg" xmlns:xlink="http://www.w3.org/1999/xlink">
    <!-- Generator: sketchtool 51.3 (57544) - http://www.bohemiancoding.com/sketch -->
    <title>C8029B4F-78F0-40FF-A5A7-C4CEB07AB4F6</title>
    <desc>Created with sketchtool.</desc>
    <defs>
        <polygon id="path-1" points="0.00234375 0.0195241387 20 0.0195241387 20 5.89609375 0.00234375 5.89609375"></polygon>
    </defs>
    <g id="homepage" stroke="none" stroke-width="1" fill="none" fill-rule="evenodd">
        <g id="Apps-menu-765" transform="translate(-56.000000, -239.000000)">
            <g id="sunrise" transform="translate(56.000000, 239.000000)">
                <path d="M16.5228125,6.82046875 C16.6221875,6.82046875 16.7229688,6.79515625 16.8152344,6.74183594 L18.4457813,5.80039063 C18.7260156,5.63855469 18.8220313,5.28023438 18.6602344,5 C18.4984375,4.71976563 18.1400781,4.62367188 17.8598438,4.78554688 L16.2292969,5.72699219 C15.9490625,5.88882813 15.8530469,6.24714844 16.0148438,6.52738281 C16.1233594,6.71535156 16.3203125,6.82046875 16.5228125,6.82046875" id="Fill-1" fill="#FFFFFF"></path>
                <path d="M13.4726953,3.98523437 C13.5649609,4.03851562 13.6656641,4.06386719 13.7650781,4.06386719 C13.9675781,4.06386719 14.1645703,3.95875 14.2730859,3.77078125 L15.2144531,2.14019531 C15.37625,1.85992187 15.2802344,1.5015625 14.9999609,1.33980469 C14.7196875,1.17789062 14.3613281,1.27402344 14.1995703,1.55425781 L13.2582031,3.18484375 C13.0964453,3.46511719 13.1924609,3.82347656 13.4726953,3.98523437" id="Fill-2" fill="#FFFFFF"></path>
                <path d="M9.99996094,3.05476563 C10.3235547,3.05476563 10.5858984,2.79242188 10.5858984,2.46882812 L10.5858984,0.586015625 C10.5858984,0.262421875 10.3235547,7.8125e-05 9.99996094,7.8125e-05 C9.67636719,7.8125e-05 9.41402344,0.262421875 9.41402344,0.586015625 L9.41402344,2.46882812 C9.41402344,2.79242188 9.67636719,3.05476563 9.99996094,3.05476563" id="Fill-3" fill="#FFFFFF"></path>
                <path d="M5.72691406,3.77078125 C5.83542969,3.95878906 6.03238281,4.06386719 6.23488281,4.06386719 C6.33425781,4.06386719 6.43503906,4.03855469 6.52730469,3.98523437 C6.80753906,3.8234375 6.90355469,3.46511719 6.74175781,3.18484375 L5.80035156,1.55429687 C5.63855469,1.27402344 5.28019531,1.17792969 4.99996094,1.33984375 C4.71972656,1.50164062 4.62371094,1.86 4.78550781,2.14023437 L5.72691406,3.77078125" id="Fill-4" fill="#FFFFFF"></path>
                <g id="Group-8" transform="translate(0.000000, 4.687500)">
                    <mask id="mask-2" fill="white">
                        <use xlink:href="#path-1"></use>
                    </mask>
                    <g id="Clip-6"></g>
                    <path d="M1.55421875,1.11300781 L3.18476562,2.05445313 C3.27703125,2.10773438 3.37777344,2.13308594 3.4771875,2.13308594 C3.6796875,2.13308594 3.87664062,2.02800781 3.98515625,1.84 C4.14695312,1.55976563 4.0509375,1.20140625 3.77070312,1.03960938 L2.14015625,0.0981640625 C1.85984375,-0.0637109375 1.50152344,0.03234375 1.33976562,0.312617188 C1.17792969,0.592851563 1.27394531,0.951210938 1.55421875,1.11300781" id="Fill-5" fill="#FFFFFF" mask="url(#mask-2)"></path>
                    <path d="M10,2.13285156 C11.5530469,2.13285156 12.84875,3.25234375 13.1246484,4.7265625 L6.8753125,4.7265625 C7.15121094,3.25234375 8.44691406,2.13285156 10,2.13285156 Z M19.4140625,4.7265625 L14.3119531,4.7265625 C14.0248828,2.60324219 12.2007422,0.960976562 10,0.960976562 C7.79921875,0.960976562 5.97507812,2.60324219 5.68800781,4.7265625 L0.5859375,4.7265625 C0.26234375,4.7265625 0,4.98890625 0,5.3125 C0,5.63609375 0.26234375,5.8984375 0.5859375,5.8984375 L19.4140625,5.8984375 C19.7376563,5.8984375 20,5.63609375 20,5.3125 C20,4.98890625 19.7376563,4.7265625 19.4140625,4.7265625 Z" id="Fill-7" fill="#FFFFFF" mask="url(#mask-2)"></path>
                </g>
            </g>
        </g>
    </g>
</svg>